<?xml version="1.0" encoding="utf-8" standalone="yes"?><svg xmlns="http://www.w3.org/2000/svg" xmlns:xlink="http://www.w3.org/1999/xlink" version="1.1" width="100%" height="100%" viewBox="0 0 816 1056"><!--Generated by Aspose.Words for .NET 18.5--><defs><clipPath id="clip1"><path d="M-1,-1 L438,-1 L438,45.380001068 L-1,45.380001068 Z" clip-rule="evenodd"></path></clipPath><clipPath id="clip10"><path d="M-1,-1 L31,-1 L31,43 L-1,43 Z" clip-rule="evenodd"></path></clipPath><clipPath id="clip11"><path d="M-1,-1 L588,-1 L588,791 L-1,791 Z" clip-rule="evenodd"></path></clipPath><clipPath id="clip12"><path d="M-1,-1 L121,-1 L121,80 L-1,80 Z" clip-rule="evenodd"></path></clipPath><clipPath id="clip13"><path d="M-1,-1 L16,-1 L16,80 L-1,80 Z" clip-rule="evenodd"></path></clipPath><clipPath id="clip14"><path d="M-1,-1 L141.649993896,-1 L141.649993896,80 L-1,80 Z" clip-rule="evenodd"></path></clipPath><clipPath id="clip15"><path d="M-1,-1 L141.649993896,-1 L141.649993896,80 L-1,80 Z" clip-rule="evenodd"></path></clipPath><clipPath id="clip16"><path d="M-1,-1 L141.699996948,-1 L141.699996948,80 L-1,80 Z" clip-rule="evenodd"></path></clipPath><clipPath id="clip17"><path d="M-1,-1 L31,-1 L31,80 L-1,80 Z" clip-rule="evenodd"></path></clipPath><clipPath id="clip18"><path d="M-1,-1 L588,-1 L588,791 L-1,791 Z" clip-rule="evenodd"></path></clipPath><clipPath id="clip19"><path d="M-1,-1 L121,-1 L121,256 L-1,256 Z" clip-rule="evenodd"></path></clipPath><clipPath id="clip2"><path d="M-1,-1 L31,-1 L31,45.380001068 L-1,45.380001068 Z" clip-rule="evenodd"></path></clipPath><clipPath id="clip20"><path d="M-1,-1 L16,-1 L16,256 L-1,256 Z" clip-rule="evenodd"></path></clipPath><clipPath id="clip21"><path d="M-1,-1 L423,-1 L423,256 L-1,256 Z" clip-rule="evenodd"></path></clipPath><clipPath id="clip22"><path d="M-1,-1 L31,-1 L31,256 L-1,256 Z" clip-rule="evenodd"></path></clipPath><clipPath id="clip23"><path d="M-1,-1 L588,-1 L588,791 L-1,791 Z" clip-rule="evenodd"></path></clipPath><clipPath id="clip24"><path d="M-1,-1 L121,-1 L121,39 L-1,39 Z" clip-rule="evenodd"></path></clipPath><clipPath id="clip25"><path d="M-1,-1 L16,-1 L16,39 L-1,39 Z" clip-rule="evenodd"></path></clipPath><clipPath id="clip26"><path d="M-1,-1 L423,-1 L423,39 L-1,39 Z" clip-rule="evenodd"></path></clipPath><clipPath id="clip27"><path d="M-1,-1 L31,-1 L31,39 L-1,39 Z" clip-rule="evenodd"></path></clipPath><clipPath id="clip3"><path d="M-1,-1 L121,-1 L121,33.569999695 L-1,33.569999695 Z" clip-rule="evenodd"></path></clipPath><clipPath id="clip4"><path d="M-1,-1 L240,-1 L240,33.569999695 L-1,33.569999695 Z" clip-rule="evenodd"></path></clipPath><clipPath id="clip5"><path d="M-1,-1 L209,-1 L209,33.569999695 L-1,33.569999695 Z" clip-rule="evenodd"></path></clipPath><clipPath id="clip6"><path d="M-1,-1 L588,-1 L588,791 L-1,791 Z" clip-rule="evenodd"></path></clipPath><clipPath id="clip7"><path d="M-1,-1 L121,-1 L121,43 L-1,43 Z" clip-rule="evenodd"></path></clipPath><clipPath id="clip8"><path d="M-1,-1 L16,-1 L16,43 L-1,43 Z" clip-rule="evenodd"></path></clipPath><clipPath id="clip9"><path d="M-1,-1 L423,-1 L423,43 L-1,43 Z" clip-rule="evenodd"></path></clipPath><style type="text/css">@import url('https://fonts.googleapis.com/css2?family=Saira+Semi+Condensed:wght@500');@import url('https://fonts.googleapis.com/css2?family=Source+Sans+Pro:wght@400;600;700');@import url('https://fonts.googleapis.com/css2?family=Montserrat:wght@400;600;700');svg{background:white}</style></defs><g transform="scale(1.33333)"><g><path d="M0,0 L600,0 L600,450 L0,450 Z" fill="#ffffff" fill-rule="evenodd"></path><g transform="matrix(1,0,0,1,600,0)"><path d="M0,0 L600,0 L600,450 L0,450 Z" fill="#ffffff" fill-rule="evenodd"></path></g><g transform="matrix(1,0,0,1,0,450)"><path d="M0,0 L600,0 L600,450 L0,450 Z" fill="#ffffff" fill-rule="evenodd"></path></g><g transform="matrix(1,0,0,1,600,450)"><path d="M0,0 L600,0 L600,450 L0,450 Z" fill="#ffffff" fill-rule="evenodd"></path></g><g transform="matrix(1,0,0,1,25,193.949996948)"><path d="M0,0 L557,0 " fill="#494949" fill-rule="evenodd"></path><path d="M0,0 L557,0 " stroke-width="0.75" stroke-miterlimit="10" stroke="#494949" fill="none" fill-rule="evenodd"></path></g><g transform="matrix(1,0,0,1,25,302.950012207)"><path d="M0,0 L557,0 " fill="#494949" fill-rule="evenodd"></path><path d="M0,0 L557,0 " stroke-width="0.75" stroke-miterlimit="10" stroke="#494949" fill="none" fill-rule="evenodd"></path></g><g transform="matrix(1,0,0,1,25,587.950012207)"><path d="M0,0 L557,0 " fill="#494949" fill-rule="evenodd"></path><path d="M0,0 L557,0 " stroke-width="0.75" stroke-miterlimit="10" stroke="#494949" fill="none" fill-rule="evenodd"></path></g><path d="M0,0 L25,0 L25,790 L0,790 Z" fill="#1c6b60" fill-rule="evenodd"></path><g transform="matrix(1,0,0,1,25,25)"><g transform="matrix(1,0,0,1,120,0)" clip-path="url(#clip1)"><text><tspan x="0" y="19.36000061" font-family="Montserrat" font-weight="bold" font-style="normal" font-size="20" fill="#1c6b60">JESSICA </tspan><tspan x="91.959999084" y="19.36000061" font-family="Montserrat" font-weight="bold" font-style="normal" font-size="20" fill="#494949">CLAIRE</tspan></text><g transform="matrix(1,0,0,1,0,24.379999161)"><text><tspan x="0" y="17.270000458" font-family="Source Sans Pro" font-weight="normal" font-style="normal" font-size="10" fill="#494949"> </tspan></text></g></g><g transform="matrix(1,0,0,1,557,0)" clip-path="url(#clip2)"><text><tspan x="0" y="11.270000458" font-family="Source Sans Pro" font-weight="normal" font-style="normal" font-size="10" fill="#494949"> </tspan></text></g></g><g transform="matrix(1,0,0,1,25,69.379997253)"><path d="M-1,0 L120,0 L121,32.569999695 L-1,32.569999695" fill="#1c6b60" fill-rule="evenodd"></path><g transform="matrix(1,0,0,1,0,0)" clip-path="url(#clip3)"><g transform="matrix(1,0,0,1,5,10)"><text><tspan x="0" y="9.840000153" font-family="Source Sans Pro" font-weight="bold" font-style="normal" font-size="10" fill="#ffffff">(555)432-1000 </tspan></text></g></g><path d="M119,0 L360,0 L360,32.569999695 L119,32.569999695" fill="#494949" fill-rule="evenodd"></path><g transform="matrix(1,0,0,1,120,0)" clip-path="url(#clip4)"><g transform="matrix(1,0,0,1,15,10)"><text><tspan x="0" y="9.840000153" font-family="Source Sans Pro" font-weight="bold" font-style="normal" font-size="10" fill="#ffffff">San Francisco, CA 94105 </tspan></text></g></g><path d="M358,0 L568,0 L568,32.569999695 L358,32.569999695" fill="#494949" fill-rule="evenodd"></path><g transform="matrix(1,0,0,1,359,0)" clip-path="url(#clip5)"><g transform="matrix(1,0,0,1,20,10)"><text><tspan x="0" y="9.840000153" font-family="Source Sans Pro" font-weight="bold" font-style="normal" font-size="10" fill="#ffffff">resumesample@example.com </tspan></text></g></g><path d="M566,0 L588,0 L588,32.569999695 L566,32.569999695" fill="#494949" fill-rule="evenodd"></path></g><g transform="matrix(1,0,0,1,25,0)" clip-path="url(#clip6)"><g transform="matrix(1,0,0,1,0,101.949996948)"><text><tspan x="0" y="17.270000458" font-family="Source Sans Pro" font-weight="normal" font-style="normal" font-size="10" fill="#494949"> </tspan></text></g></g><g transform="matrix(1,0,0,1,25,121.949996948)"><g transform="matrix(1,0,0,1,0,0)" clip-path="url(#clip7)"><g transform="matrix(1,0,0,1,5,0)"><text><tspan x="0" y="11.616000175" font-family="Montserrat" font-weight="bold" font-style="normal" font-size="12" fill="#1c6b60">Professional </tspan><tspan x="0" y="26.243999481" font-family="Montserrat" font-weight="bold" font-style="normal" font-size="12" fill="#1c6b60">Summary</tspan></text></g></g><g transform="matrix(1,0,0,1,120,0)" clip-path="url(#clip8)"><text><tspan x="0" y="11.270000458" font-family="Source Sans Pro" font-weight="normal" font-style="normal" font-size="10" fill="#494949"> </tspan></text></g><g transform="matrix(1,0,0,1,135,0)" clip-path="url(#clip9)"><text><tspan x="0" y="11.270000458" font-family="Source Sans Pro" font-weight="normal" font-style="normal" font-size="10" fill="#494949">Highly motivated Sales Associate with extensive customer service and sales experience. Outgoing </tspan><tspan x="0" y="25.270000458" font-family="Source Sans Pro" font-weight="normal" font-style="normal" font-size="10" fill="#494949">sales professional with track record of driving increased sales, improving buying experience and </tspan><tspan x="0" y="39.270000458" font-family="Source Sans Pro" font-weight="normal" font-style="normal" font-size="10" fill="#494949">elevating company profile with target market.</tspan></text></g><g transform="matrix(1,0,0,1,557,0)" clip-path="url(#clip10)"><text><tspan x="0" y="11.270000458" font-family="Source Sans Pro" font-weight="normal" font-style="normal" font-size="10" fill="#494949"> </tspan></text></g></g><g transform="matrix(1,0,0,1,25,0)" clip-path="url(#clip11)"><g transform="matrix(1,0,0,1,0,163.949996948)"><text><tspan x="0" y="27.270000458" font-family="Source Sans Pro" font-weight="normal" font-style="normal" font-size="10" fill="#494949"> </tspan></text></g></g><g transform="matrix(1,0,0,1,25,193.949996948)"><g transform="matrix(1,0,0,1,0,0)" clip-path="url(#clip12)"><g transform="matrix(1,0,0,1,5,0)"><text><tspan x="0" y="21.615999222" font-family="Montserrat" font-weight="bold" font-style="normal" font-size="12" fill="#1c6b60">Skills</tspan></text></g></g><g transform="matrix(1,0,0,1,120,0)" clip-path="url(#clip13)"><text><tspan x="0" y="21.270000458" font-family="Source Sans Pro" font-weight="normal" font-style="normal" font-size="10" fill="#494949"> </tspan></text></g></g><g transform="matrix(1,0,0,1,160,193.949996948)"><g transform="matrix(1,0,0,1,0,0)" clip-path="url(#clip14)"><g transform="matrix(1,0,0,1,0.400000006,0)"><text><tspan x="-0.5" y="25.520000458" font-family="Times New Roman" font-weight="normal" font-style="normal" font-size="7.5" fill="#494949">●</tspan><tspan x="9.600000381" y="26.270000458" font-family="Source Sans Pro" font-weight="normal" font-style="normal" font-size="10" fill="#494949">Guest services</tspan></text></g><g transform="matrix(1,0,0,1,0.400000006,33)"><text><tspan x="-0.5" y="10.520000458" font-family="Times New Roman" font-weight="normal" font-style="normal" font-size="7.5" fill="#494949">●</tspan><tspan x="9.600000381" y="11.270000458" font-family="Source Sans Pro" font-weight="normal" font-style="normal" font-size="10" fill="#494949">Inventory control </tspan><tspan x="9.600000381" y="25.270000458" font-family="Source Sans Pro" font-weight="normal" font-style="normal" font-size="10" fill="#494949">procedures</tspan></text></g><g transform="matrix(1,0,0,1,0.400000006,65)"><text><tspan x="-0.5" y="10.520000458" font-family="Times New Roman" font-weight="normal" font-style="normal" font-size="7.5" fill="#494949">●</tspan><tspan x="9.600000381" y="11.270000458" font-family="Source Sans Pro" font-weight="normal" font-style="normal" font-size="10" fill="#494949">Merchandising expertise</tspan></text></g></g><g transform="matrix(1,0,0,1,140.649993896,0)" clip-path="url(#clip15)"><g transform="matrix(1,0,0,1,0.400000006,0)"><text><tspan x="-0.5" y="25.520000458" font-family="Times New Roman" font-weight="normal" font-style="normal" font-size="7.5" fill="#494949">●</tspan><tspan x="9.600000381" y="26.270000458" font-family="Source Sans Pro" font-weight="normal" font-style="normal" font-size="10" fill="#494949">Loss prevention</tspan></text></g><g transform="matrix(1,0,0,1,0.400000006,33)"><text><tspan x="-0.5" y="10.520000458" font-family="Times New Roman" font-weight="normal" font-style="normal" font-size="7.5" fill="#494949">●</tspan><tspan x="9.600000381" y="11.270000458" font-family="Source Sans Pro" font-weight="normal" font-style="normal" font-size="10" fill="#494949">Cash register operations</tspan></text></g><g transform="matrix(1,0,0,1,0.400000006,51)"><text><tspan x="-0.5" y="10.520000458" font-family="Times New Roman" font-weight="normal" font-style="normal" font-size="7.5" fill="#494949">●</tspan><tspan x="9.600000381" y="11.270000458" font-family="Source Sans Pro" font-weight="normal" font-style="normal" font-size="10" fill="#494949">Product promotions</tspan></text></g></g><g transform="matrix(1,0,0,1,281.299987793,0)" clip-path="url(#clip16)"><g transform="matrix(1,0,0,1,0.400000006,0)"><text><tspan x="-0.5" y="25.520000458" font-family="Times New Roman" font-weight="normal" font-style="normal" font-size="7.5" fill="#494949">●</tspan><tspan x="9.600000381" y="26.270000458" font-family="Source Sans Pro" font-weight="normal" font-style="normal" font-size="10" fill="#494949">Social perceptiveness</tspan></text></g><g transform="matrix(1,0,0,1,0.400000006,33)"><text><tspan x="-0.5" y="10.520000458" font-family="Times New Roman" font-weight="normal" font-style="normal" font-size="7.5" fill="#494949">●</tspan><tspan x="9.600000381" y="11.270000458" font-family="Source Sans Pro" font-weight="normal" font-style="normal" font-size="10" fill="#494949">Contract preparation</tspan></text></g><g transform="matrix(1,0,0,1,0.400000006,51)"><text><tspan x="-0.5" y="10.520000458" font-family="Times New Roman" font-weight="normal" font-style="normal" font-size="7.5" fill="#494949">●</tspan><tspan x="9.600000381" y="11.270000458" font-family="Source Sans Pro" font-weight="normal" font-style="normal" font-size="10" fill="#494949">Staff Management</tspan></text></g></g></g><g transform="matrix(1,0,0,1,25,193.949996948)"><g transform="matrix(1,0,0,1,557,0)" clip-path="url(#clip17)"><text><tspan x="0" y="21.270000458" font-family="Source Sans Pro" font-weight="normal" font-style="normal" font-size="10" fill="#494949"> </tspan></text></g></g><g transform="matrix(1,0,0,1,25,0)" clip-path="url(#clip18)"><g transform="matrix(1,0,0,1,0,272.950012207)"><text><tspan x="0" y="27.270000458" font-family="Source Sans Pro" font-weight="normal" font-style="normal" font-size="10" fill="#494949"> </tspan></text></g></g><g transform="matrix(1,0,0,1,25,302.950012207)"><g transform="matrix(1,0,0,1,0,0)" clip-path="url(#clip19)"><g transform="matrix(1,0,0,1,5,0)"><text><tspan x="0" y="21.615999222" font-family="Montserrat" font-weight="bold" font-style="normal" font-size="12" fill="#1c6b60">Work History</tspan></text></g></g><g transform="matrix(1,0,0,1,120,0)" clip-path="url(#clip20)"><text><tspan x="0" y="21.270000458" font-family="Source Sans Pro" font-weight="normal" font-style="normal" font-size="10" fill="#494949"> </tspan></text></g><g transform="matrix(1,0,0,1,135,0)" clip-path="url(#clip21)"><text><tspan x="0" y="21.270000458" font-family="Source Sans Pro" font-weight="bold" font-style="normal" font-size="10" fill="#494949">SENIOR SALES ASSOCIATE</tspan><tspan x="114.330001831" y="21.270000458" font-family="Source Sans Pro" font-weight="normal" font-style="normal" font-size="10" fill="#494949">, 03/2015 - Current </tspan></text><g transform="matrix(1,0,0,1,0,24)"><text><tspan x="0" y="11.270000458" font-family="Source Sans Pro" font-weight="bold" font-style="normal" font-size="10" fill="#494949">Bed Bath &amp; Beyond, Inc.</tspan><tspan x="105.680000305" y="11.270000458" font-family="Source Sans Pro" font-weight="normal" font-style="normal" font-size="10" fill="#494949">, San Francisco, CA</tspan></text></g><g transform="matrix(1,0,0,1,0.400000006,38)"><text><tspan x="-0.5" y="15.520000458" font-family="Times New Roman" font-weight="normal" font-style="normal" font-size="7.5" fill="#494949">●</tspan><tspan x="9.600000381" y="16.270000458" font-family="Source Sans Pro" font-weight="normal" font-style="normal" font-size="10" fill="#494949">Applied security and loss prevention training toward recognizing risks and reducing store theft</tspan></text></g><g transform="matrix(1,0,0,1,0.400000006,61)"><text><tspan x="-0.5" y="10.520000458" font-family="Times New Roman" font-weight="normal" font-style="normal" font-size="7.5" fill="#494949">●</tspan><tspan x="9.600000381" y="11.270000458" font-family="Source Sans Pro" font-weight="normal" font-style="normal" font-size="10" fill="#494949">Trained and developed sales team associates in products, selling techniques and procedures</tspan></text></g><g transform="matrix(1,0,0,1,0.400000006,79)"><text><tspan x="-0.5" y="10.520000458" font-family="Times New Roman" font-weight="normal" font-style="normal" font-size="7.5" fill="#494949">●</tspan><tspan x="9.600000381" y="11.270000458" font-family="Source Sans Pro" font-weight="normal" font-style="normal" font-size="10" fill="#494949">Maintained organized, presentable merchandise to drive continuous sales</tspan></text></g><g transform="matrix(1,0,0,1,0.400000006,97)"><text><tspan x="-0.5" y="10.520000458" font-family="Times New Roman" font-weight="normal" font-style="normal" font-size="7.5" fill="#494949">●</tspan><tspan x="9.600000381" y="11.270000458" font-family="Source Sans Pro" font-weight="normal" font-style="normal" font-size="10" fill="#494949">Implemented up-selling strategies for recommending accessories and complementary purchases</tspan></text></g><g transform="matrix(1,0,0,1,0,111)"><text><tspan x="0" y="26.270000458" font-family="Source Sans Pro" font-weight="bold" font-style="normal" font-size="10" fill="#494949">SALES ASSOCIATE</tspan><tspan x="78.629997253" y="26.270000458" font-family="Source Sans Pro" font-weight="normal" font-style="normal" font-size="10" fill="#494949">, 06/2013 - 03/2015 </tspan></text></g><g transform="matrix(1,0,0,1,0,140)"><text><tspan x="0" y="11.270000458" font-family="Source Sans Pro" font-weight="bold" font-style="normal" font-size="10" fill="#494949">Target</tspan><tspan x="29.219999313" y="11.270000458" font-family="Source Sans Pro" font-weight="normal" font-style="normal" font-size="10" fill="#494949">, San Francisco, CA</tspan></text></g><g transform="matrix(1,0,0,1,0.400000006,154)"><text><tspan x="-0.5" y="15.520000458" font-family="Times New Roman" font-weight="normal" font-style="normal" font-size="7.5" fill="#494949">●</tspan><tspan x="9.600000381" y="16.270000458" font-family="Source Sans Pro" font-weight="normal" font-style="normal" font-size="10" fill="#494949">Maintained organized, presentable merchandise to drive continuous sales</tspan></text></g><g transform="matrix(1,0,0,1,0.400000006,177)"><text><tspan x="-0.5" y="10.520000458" font-family="Times New Roman" font-weight="normal" font-style="normal" font-size="7.5" fill="#494949">●</tspan><tspan x="9.600000381" y="11.270000458" font-family="Source Sans Pro" font-weight="normal" font-style="normal" font-size="10" fill="#494949">Organized racks and shelves to maintain store visual appeal, engage customers and promote </tspan><tspan x="9.600000381" y="25.270000458" font-family="Source Sans Pro" font-weight="normal" font-style="normal" font-size="10" fill="#494949">merchandise</tspan></text></g><g transform="matrix(1,0,0,1,0.400000006,209)"><text><tspan x="-0.5" y="10.520000458" font-family="Times New Roman" font-weight="normal" font-style="normal" font-size="7.5" fill="#494949">●</tspan><tspan x="9.600000381" y="11.270000458" font-family="Source Sans Pro" font-weight="normal" font-style="normal" font-size="10" fill="#494949">Evaluated inventory and delivery needs, optimizing strategies to meet customer demands</tspan></text></g><g transform="matrix(1,0,0,1,0.400000006,227)"><text><tspan x="-0.5" y="10.520000458" font-family="Times New Roman" font-weight="normal" font-style="normal" font-size="7.5" fill="#494949">●</tspan><tspan x="9.600000381" y="11.270000458" font-family="Source Sans Pro" font-weight="normal" font-style="normal" font-size="10" fill="#494949">Analyzed and processed returns, assisting customers with finding alternative merchandise to meet </tspan><tspan x="9.600000381" y="25.270000458" font-family="Source Sans Pro" font-weight="normal" font-style="normal" font-size="10" fill="#494949">needs</tspan></text></g></g><g transform="matrix(1,0,0,1,557,0)" clip-path="url(#clip22)"><text><tspan x="0" y="21.270000458" font-family="Source Sans Pro" font-weight="normal" font-style="normal" font-size="10" fill="#494949"> </tspan></text></g></g><g transform="matrix(1,0,0,1,25,0)" clip-path="url(#clip23)"><g transform="matrix(1,0,0,1,0,557.950012207)"><text><tspan x="0" y="27.270000458" font-family="Source Sans Pro" font-weight="normal" font-style="normal" font-size="10" fill="#494949"> </tspan></text></g></g><g transform="matrix(1,0,0,1,25,587.950012207)"><g transform="matrix(1,0,0,1,0,0)" clip-path="url(#clip24)"><g transform="matrix(1,0,0,1,5,0)"><text><tspan x="0" y="21.615999222" font-family="Montserrat" font-weight="bold" font-style="normal" font-size="12" fill="#1c6b60">Education</tspan></text></g></g><g transform="matrix(1,0,0,1,120,0)" clip-path="url(#clip25)"><text><tspan x="0" y="21.270000458" font-family="Source Sans Pro" font-weight="normal" font-style="normal" font-size="10" fill="#494949"> </tspan></text></g><g transform="matrix(1,0,0,1,135,0)" clip-path="url(#clip26)"><text><tspan x="0" y="21.270000458" font-family="Source Sans Pro" font-weight="bold" font-style="normal" font-size="10" fill="#494949">Bachelor of Arts</tspan><tspan x="70.400001526" y="21.270000458" font-family="Source Sans Pro" font-weight="normal" font-style="normal" font-size="10" fill="#494949">: Business Administration</tspan></text><g transform="matrix(1,0,0,1,0,24)"><text><tspan x="0" y="11.270000458" font-family="Source Sans Pro" font-weight="bold" font-style="normal" font-size="10" fill="#494949">San Francisco State University</tspan><tspan x="134.63999939" y="11.270000458" font-family="Source Sans Pro" font-weight="normal" font-style="normal" font-size="10" fill="#494949"> - San Francisco, CA, 2013</tspan></text></g></g><g transform="matrix(1,0,0,1,557,0)" clip-path="url(#clip27)"><text><tspan x="0" y="21.270000458" font-family="Source Sans Pro" font-weight="normal" font-style="normal" font-size="10" fill="#494949"> </tspan></text></g></g><g transform="matrix(1,0,0,1,0,790)"><text><tspan x="0" y="0.077" font-family="Times New Roman" font-weight="normal" font-style="normal" font-size="1" fill="#ffffff">.</tspan></text></g><g transform="matrix(1,0,0,1,25,193.949996948)"><path d="M-1,0 L120,0 L121,2 L-1,2" fill="#1c6b60" fill-rule="evenodd"></path><path d="M0,0 L120,0 L120,2 L0,2 Z" stroke-width="0.75" stroke-miterlimit="10" stroke="#1c6b60" fill="none" fill-rule="evenodd"></path></g><g transform="matrix(1,0,0,1,25,302.950012207)"><path d="M-1,0 L120,0 L121,2 L-1,2" fill="#1c6b60" fill-rule="evenodd"></path><path d="M0,0 L120,0 L120,2 L0,2 Z" stroke-width="0.75" stroke-miterlimit="10" stroke="#1c6b60" fill="none" fill-rule="evenodd"></path></g><g transform="matrix(1,0,0,1,25,587.950012207)"><path d="M-1,0 L120,0 L121,2 L-1,2" fill="#1c6b60" fill-rule="evenodd"></path><path d="M0,0 L120,0 L120,2 L0,2 Z" stroke-width="0.75" stroke-miterlimit="10" stroke="#1c6b60" fill="none" fill-rule="evenodd"></path></g></g></g></svg>