<?xml version="1.0" encoding="utf-8" standalone="yes"?><svg xmlns="http://www.w3.org/2000/svg" xmlns:xlink="http://www.w3.org/1999/xlink" version="1.1" width="100%" height="100%" viewBox="0 0 816 1056"><!--Generated by Aspose.Words for .NET 18.5--><defs><clipPath id="clip1"><path d="M-1,-1 L348,-1 L348,31 L-1,31 Z" clip-rule="evenodd"></path></clipPath><clipPath id="clip2"><path d="M-1,-1 L378,-1 L378,570 L-1,570 Z" clip-rule="evenodd"></path></clipPath><clipPath id="clip3"><path d="M-1,-1 L176,-1 L176,570 L-1,570 Z" clip-rule="evenodd"></path></clipPath><style type="text/css">@import url('https://fonts.googleapis.com/css2?family=Open+Sans:ital,wght@0,400;0,600;0,700;1,400');@import url('https://fonts.googleapis.com/css2?family=Montserrat:ital,wght@0,400;0,500;0,700;1,400');svg{background:white}</style></defs><g transform="scale(1.33333)"><g><g transform="matrix(1,0,0,1,0,40)"><path d="M0,0 L30,0 L30,30 L0,30 Z" fill="#2c806f" fill-rule="evenodd"></path><g transform="matrix(1,0,0,1,30,0)" clip-path="url(#clip1)"><g transform="matrix(1,0,0,1,15,0)"><text><tspan x="0" y="23.975999832" font-family="Montserrat" font-weight="bold" font-style="normal" font-size="24" fill="#2a2a2a">Jessica Claire</tspan></text></g></g><g transform="matrix(1,0,0,1,0,0)" clip-path="url(#clip2)"><g transform="matrix(1,0,0,1,30,30)"><text><tspan x="0" y="16" font-family="Open Sans" font-weight="normal" font-style="normal" font-size="5" fill="#2a2a2a"> </tspan></text></g><g transform="matrix(1,0,0,1,30,50)"><text><tspan x="0" y="11.987999916" font-family="Montserrat" font-weight="bold" font-style="normal" font-size="12" fill="#2a2a2a">PROFESSIONAL SUMMARY</tspan></text></g><g transform="matrix(1,0,0,1,30,75)"><text><tspan x="0" y="11.069999695" font-family="Open Sans" font-weight="normal" font-style="normal" font-size="10" fill="#2a2a2a">Highly motivated Sales Associate with extensive customer service and </tspan><tspan x="0" y="25.069999695" font-family="Open Sans" font-weight="normal" font-style="normal" font-size="10" fill="#2a2a2a">sales experience. Outgoing sales professional with track record of driving </tspan><tspan x="0" y="39.069999695" font-family="Open Sans" font-weight="normal" font-style="normal" font-size="10" fill="#2a2a2a">increased sales, improving buying experience and elevating company </tspan><tspan x="0" y="53.069999695" font-family="Open Sans" font-weight="normal" font-style="normal" font-size="10" fill="#2a2a2a">profile with target market.</tspan></text></g><g transform="matrix(1,0,0,1,30,131)"><text><tspan x="0" y="16" font-family="Open Sans" font-weight="normal" font-style="normal" font-size="5" fill="#2a2a2a"> </tspan></text></g><g transform="matrix(1,0,0,1,30,151)"><text><tspan x="0" y="17" font-family="Open Sans" font-weight="normal" font-style="normal" font-size="5" fill="#2a2a2a"> </tspan></text></g><path d="M28.549999237,151.5 L378.449981689,151.5 " stroke-width="1" stroke-miterlimit="10" stroke="#2c806f" fill="none" fill-rule="evenodd"></path><g transform="matrix(1,0,0,1,30,172)"><text><tspan x="0" y="11.987999916" font-family="Montserrat" font-weight="bold" font-style="normal" font-size="12" fill="#2a2a2a">WORK HISTORY</tspan></text></g><g transform="matrix(1,0,0,1,30,197)"><text><tspan x="0" y="11.069999695" font-family="Open Sans" font-weight="bold" font-style="normal" font-size="10" fill="#2a2a2a">Bed Bath &amp; Beyond, Inc.</tspan><tspan x="118.70300293" y="11.069999695" font-family="Open Sans" font-weight="normal" font-style="normal" font-size="10" fill="#2a2a2a"> - </tspan><tspan x="127.116996765" y="11.069999695" font-family="Open Sans" font-weight="bold" font-style="normal" font-size="10" fill="#2a2a2a">Senior Sales Associate</tspan></text></g><g transform="matrix(1,0,0,1,30,211)"><text><tspan x="0" y="11.069999695" font-family="Open Sans" font-weight="normal" font-style="italic" font-size="10" fill="#2a2a2a">San Francisco, CA</tspan></text></g><g transform="matrix(1,0,0,1,30,225)"><text><tspan x="0" y="11.069999695" font-family="Open Sans" font-weight="normal" font-style="italic" font-size="10" fill="#2a2a2a">03/2015 - Current</tspan></text></g><g transform="matrix(1,0,0,1,30.399999619,239)"><text><tspan x="-0.5" y="22.319999695" font-family="Times New Roman" font-weight="normal" font-style="normal" font-size="7.5" fill="#2a2a2a">●</tspan><tspan x="12.600000381" y="23.069999695" font-family="Open Sans" font-weight="normal" font-style="normal" font-size="10" fill="#2a2a2a">Applied security and loss prevention training toward recognizing risks </tspan><tspan x="12.600000381" y="37.069999695" font-family="Open Sans" font-weight="normal" font-style="normal" font-size="10" fill="#2a2a2a">and reducing store theft</tspan></text></g><g transform="matrix(1,0,0,1,30.399999619,279)"><text><tspan x="-0.5" y="10.319999695" font-family="Times New Roman" font-weight="normal" font-style="normal" font-size="7.5" fill="#2a2a2a">●</tspan><tspan x="12.600000381" y="11.069999695" font-family="Open Sans" font-weight="normal" font-style="normal" font-size="10" fill="#2a2a2a">Trained and developed sales team associates in products, selling </tspan><tspan x="12.600000381" y="25.069999695" font-family="Open Sans" font-weight="normal" font-style="normal" font-size="10" fill="#2a2a2a">techniques and procedures</tspan></text></g><g transform="matrix(1,0,0,1,30.399999619,307)"><text><tspan x="-0.5" y="10.319999695" font-family="Times New Roman" font-weight="normal" font-style="normal" font-size="7.5" fill="#2a2a2a">●</tspan><tspan x="12.600000381" y="11.069999695" font-family="Open Sans" font-weight="normal" font-style="normal" font-size="10" fill="#2a2a2a">Maintained organized, presentable merchandise to drive continuous </tspan><tspan x="12.600000381" y="25.069999695" font-family="Open Sans" font-weight="normal" font-style="normal" font-size="10" fill="#2a2a2a">sales</tspan></text></g><g transform="matrix(1,0,0,1,30.399999619,335)"><text><tspan x="-0.5" y="10.319999695" font-family="Times New Roman" font-weight="normal" font-style="normal" font-size="7.5" fill="#2a2a2a">●</tspan><tspan x="12.600000381" y="11.069999695" font-family="Open Sans" font-weight="normal" font-style="normal" font-size="10" fill="#2a2a2a">Implemented up-selling strategies for recommending accessories and </tspan><tspan x="12.600000381" y="25.069999695" font-family="Open Sans" font-weight="normal" font-style="normal" font-size="10" fill="#2a2a2a">complementary purchases</tspan></text></g><g transform="matrix(1,0,0,1,30,363)"><text><tspan x="0" y="31.069999695" font-family="Open Sans" font-weight="bold" font-style="normal" font-size="10" fill="#2a2a2a">Target</tspan><tspan x="32.270999908" y="31.069999695" font-family="Open Sans" font-weight="normal" font-style="normal" font-size="10" fill="#2a2a2a"> - </tspan><tspan x="40.685001373" y="31.069999695" font-family="Open Sans" font-weight="bold" font-style="normal" font-size="10" fill="#2a2a2a">Sales Associate</tspan></text></g><g transform="matrix(1,0,0,1,30,397)"><text><tspan x="0" y="11.069999695" font-family="Open Sans" font-weight="normal" font-style="italic" font-size="10" fill="#2a2a2a">San Francisco, CA</tspan></text></g><g transform="matrix(1,0,0,1,30,411)"><text><tspan x="0" y="11.069999695" font-family="Open Sans" font-weight="normal" font-style="italic" font-size="10" fill="#2a2a2a">06/2013 - 03/2015</tspan></text></g><g transform="matrix(1,0,0,1,30.399999619,425)"><text><tspan x="-0.5" y="22.319999695" font-family="Times New Roman" font-weight="normal" font-style="normal" font-size="7.5" fill="#2a2a2a">●</tspan><tspan x="12.600000381" y="23.069999695" font-family="Open Sans" font-weight="normal" font-style="normal" font-size="10" fill="#2a2a2a">Maintained organized, presentable merchandise to drive continuous </tspan><tspan x="12.600000381" y="37.069999695" font-family="Open Sans" font-weight="normal" font-style="normal" font-size="10" fill="#2a2a2a">sales</tspan></text></g><g transform="matrix(1,0,0,1,30.399999619,465)"><text><tspan x="-0.5" y="10.319999695" font-family="Times New Roman" font-weight="normal" font-style="normal" font-size="7.5" fill="#2a2a2a">●</tspan><tspan x="12.600000381" y="11.069999695" font-family="Open Sans" font-weight="normal" font-style="normal" font-size="10" fill="#2a2a2a">Organized racks and shelves to maintain store visual appeal, engage </tspan><tspan x="12.600000381" y="25.069999695" font-family="Open Sans" font-weight="normal" font-style="normal" font-size="10" fill="#2a2a2a">customers and promote merchandise</tspan></text></g><g transform="matrix(1,0,0,1,30.399999619,493)"><text><tspan x="-0.5" y="10.319999695" font-family="Times New Roman" font-weight="normal" font-style="normal" font-size="7.5" fill="#2a2a2a">●</tspan><tspan x="12.600000381" y="11.069999695" font-family="Open Sans" font-weight="normal" font-style="normal" font-size="10" fill="#2a2a2a">Evaluated inventory and delivery needs, optimizing strategies to meet </tspan><tspan x="12.600000381" y="25.069999695" font-family="Open Sans" font-weight="normal" font-style="normal" font-size="10" fill="#2a2a2a">customer demands</tspan></text></g><g transform="matrix(1,0,0,1,30.399999619,521)"><text><tspan x="-0.5" y="10.319999695" font-family="Times New Roman" font-weight="normal" font-style="normal" font-size="7.5" fill="#2a2a2a">●</tspan><tspan x="12.600000381" y="11.069999695" font-family="Open Sans" font-weight="normal" font-style="normal" font-size="10" fill="#2a2a2a">Analyzed and processed returns, assisting customers with finding </tspan><tspan x="12.600000381" y="25.069999695" font-family="Open Sans" font-weight="normal" font-style="normal" font-size="10" fill="#2a2a2a">alternative merchandise to meet needs</tspan></text></g><g transform="matrix(1,0,0,1,30,549)"><text><tspan x="0" y="16" font-family="Open Sans" font-weight="normal" font-style="normal" font-size="5" fill="#2a2a2a"> </tspan></text></g></g><g transform="matrix(1,0,0,1,407,0)" clip-path="url(#clip3)"><text><tspan x="0" y="11.069999695" font-family="Open Sans" font-weight="normal" font-style="normal" font-size="10" fill="#2a2a2a">San Francisco CA 94105</tspan></text><g transform="matrix(1,0,0,1,0,14)"><text><tspan x="0" y="11.069999695" font-family="Open Sans" font-weight="normal" font-style="normal" font-size="10" fill="#2a2a2a">(555)432-1000</tspan></text></g><g transform="matrix(1,0,0,1,0,28)"><text><tspan x="0" y="11.069999695" font-family="Open Sans" font-weight="normal" font-style="normal" font-size="10" fill="#2a2a2a">resumesample@example.com</tspan></text></g><g transform="matrix(1,0,0,1,0,42)"><text><tspan x="0" y="8.534999847" font-family="Open Sans" font-weight="normal" font-style="normal" font-size="5" fill="#2a2a2a"> </tspan></text></g><path d="M-1.450000048,57.5 L176.449996948,57.5 " stroke-width="11" stroke-miterlimit="10" stroke="#2c806f" fill="none" fill-rule="evenodd"></path><g transform="matrix(1,0,0,1,0,63)"><text><tspan x="0" y="16" font-family="Open Sans" font-weight="normal" font-style="normal" font-size="5" fill="#2a2a2a"> </tspan></text></g><g transform="matrix(1,0,0,1,0,83)"><text><tspan x="0" y="11.987999916" font-family="Montserrat" font-weight="bold" font-style="normal" font-size="12" fill="#2a2a2a">SKILLS</tspan></text></g><g transform="matrix(1,0,0,1,0.400000006,108)"><text><tspan x="-0.5" y="10.319999695" font-family="Times New Roman" font-weight="normal" font-style="normal" font-size="7.5" fill="#2a2a2a">●</tspan><tspan x="12.600000381" y="11.069999695" font-family="Open Sans" font-weight="normal" font-style="normal" font-size="10" fill="#2a2a2a">Guest services</tspan></text></g><g transform="matrix(1,0,0,1,0.400000006,122)"><text><tspan x="-0.5" y="10.319999695" font-family="Times New Roman" font-weight="normal" font-style="normal" font-size="7.5" fill="#2a2a2a">●</tspan><tspan x="12.600000381" y="11.069999695" font-family="Open Sans" font-weight="normal" font-style="normal" font-size="10" fill="#2a2a2a">Inventory control procedures</tspan></text></g><g transform="matrix(1,0,0,1,0.400000006,136)"><text><tspan x="-0.5" y="10.319999695" font-family="Times New Roman" font-weight="normal" font-style="normal" font-size="7.5" fill="#2a2a2a">●</tspan><tspan x="12.600000381" y="11.069999695" font-family="Open Sans" font-weight="normal" font-style="normal" font-size="10" fill="#2a2a2a">Merchandising expertise</tspan></text></g><g transform="matrix(1,0,0,1,0.400000006,150)"><text><tspan x="-0.5" y="10.319999695" font-family="Times New Roman" font-weight="normal" font-style="normal" font-size="7.5" fill="#2a2a2a">●</tspan><tspan x="12.600000381" y="11.069999695" font-family="Open Sans" font-weight="normal" font-style="normal" font-size="10" fill="#2a2a2a">Loss prevention</tspan></text></g><g transform="matrix(1,0,0,1,0.400000006,164)"><text><tspan x="-0.5" y="10.319999695" font-family="Times New Roman" font-weight="normal" font-style="normal" font-size="7.5" fill="#2a2a2a">●</tspan><tspan x="12.600000381" y="11.069999695" font-family="Open Sans" font-weight="normal" font-style="normal" font-size="10" fill="#2a2a2a">Cash register operations</tspan></text></g><g transform="matrix(1,0,0,1,0.400000006,178)"><text><tspan x="-0.5" y="10.319999695" font-family="Times New Roman" font-weight="normal" font-style="normal" font-size="7.5" fill="#2a2a2a">●</tspan><tspan x="12.600000381" y="11.069999695" font-family="Open Sans" font-weight="normal" font-style="normal" font-size="10" fill="#2a2a2a">Product promotions</tspan></text></g><g transform="matrix(1,0,0,1,0,192)"><text><tspan x="0" y="18.534999847" font-family="Open Sans" font-weight="normal" font-style="normal" font-size="5" fill="#2a2a2a"> </tspan></text></g><g transform="matrix(1,0,0,1,0,212)"><text><tspan x="0" y="17" font-family="Open Sans" font-weight="normal" font-style="normal" font-size="5" fill="#2a2a2a"> </tspan></text></g><path d="M-1.450000048,212.5 L176.449996948,212.5 " stroke-width="1" stroke-miterlimit="10" stroke="#2c806f" fill="none" fill-rule="evenodd"></path><g transform="matrix(1,0,0,1,0,233)"><text><tspan x="0" y="11.987999916" font-family="Montserrat" font-weight="bold" font-style="normal" font-size="12" fill="#2a2a2a">EDUCATION</tspan></text></g><g transform="matrix(1,0,0,1,0,258)"><text><tspan x="0" y="11.069999695" font-family="Open Sans" font-weight="normal" font-style="italic" font-size="10" fill="#2a2a2a">2013</tspan></text></g><g transform="matrix(1,0,0,1,0,272)"><text><tspan x="0" y="11.069999695" font-family="Open Sans" font-weight="bold" font-style="normal" font-size="10" fill="#2a2a2a">San Francisco State University</tspan></text></g><g transform="matrix(1,0,0,1,0,286)"><text><tspan x="0" y="11.069999695" font-family="Open Sans" font-weight="normal" font-style="normal" font-size="10" fill="#2a2a2a">San Francisco, CA</tspan></text></g><g transform="matrix(1,0,0,1,0,300)"><text><tspan x="0" y="17.069999695" font-family="Open Sans" font-weight="bold" font-style="normal" font-size="10" fill="#2a2a2a">Bachelor of Arts</tspan><tspan x="80.176002502" y="17.069999695" font-family="Open Sans" font-weight="normal" font-style="normal" font-size="10" fill="#2a2a2a">: Business </tspan><tspan x="0" y="31.069999695" font-family="Open Sans" font-weight="normal" font-style="normal" font-size="10" fill="#2a2a2a">Administration </tspan></text></g><g transform="matrix(1,0,0,1,0,334)"><text><tspan x="0" y="16" font-family="Open Sans" font-weight="normal" font-style="normal" font-size="5" fill="#2a2a2a"> </tspan></text></g></g></g></g></g></svg>